/videos/f13b4b66-a0cc-1a42-7497-39df2d48d492/hls1/main/2.ts

{"Protocol":0,"Id":"f13b4b66a0cc1a42749739df2d48d492","Path":"/data/tvshows/Come Fly With Me/Season 1/Come Fly With Me - S01E03 - Episode 3 Bluray-1080p.mkv","EncoderPath":null,"EncoderProtocol":null,"Type":0,"Container":"mkv,webm","Size":825961768,"Name":"Come Fly With Me - S01E03 - Episode 3 Bluray-1080p","IsRemote":false,"ETag":"d1305e6cd1643a91859bb2d942ba9efa","RunTimeTicks":16830080000,"ReadAtNativeFramerate":false,"IgnoreDts":false,"IgnoreIndex":false,"GenPtsInput":false,"SupportsTranscoding":true,"SupportsDirectStream":true,"SupportsDirectPlay":true,"IsInfiniteStream":false,"RequiresOpening":false,"OpenToken":null,"RequiresClosing":false,"LiveStreamId":null,"BufferMs":null,"RequiresLooping":false,"SupportsProbing":true,"VideoType":0,"IsoType":null,"Video3DFormat":null,"MediaStreams":[{"Codec":"hevc","CodecTag":null,"Language":null,"ColorRange":null,"ColorSpace":null,"ColorTransfer":null,"ColorPrimaries":null,"DvVersionMajor":null,"DvVersionMinor":null,"DvProfile":null,"DvLevel":null,"RpuPresentFlag":null,"ElPresentFlag":null,"BlPresentFlag":null,"DvBlSignalCompatibilityId":null,"Comment":null,"TimeBase":"1/1000","CodecTimeBase":null,"Title":null,"VideoRange":"SDR","VideoRangeType":"SDR","VideoDoViTitle":null,"LocalizedUndefined":null,"LocalizedDefault":null,"LocalizedForced":null,"LocalizedExternal":null,"DisplayTitle":"1080p HEVC SDR","NalLengthSize":null,"IsInterlaced":false,"IsAVC":null,"ChannelLayout":null,"BitRate":3926121,"BitDepth":10,"RefFrames":1,"PacketLength":null,"Channels":null,"SampleRate":null,"IsDefault":true,"IsForced":false,"Height":1080,"Width":1920,"AverageFrameRate":25,"RealFrameRate":25,"Profile":"Main 10","Type":1,"AspectRatio":"16:9","Index":0,"Score":null,"IsExternal":false,"DeliveryMethod":null,"DeliveryUrl":null,"IsExternalUrl":null,"IsTextSubtitleStream":false,"SupportsExternalStream":false,"Path":null,"PixelFormat":"yuv420p10le","Level":120,"IsAnamorphic":null},{"Codec":"ac3","CodecTag":null,"Language":"eng","ColorRange":null,"ColorSpace":null,"ColorTransfer":null,"ColorPrimaries":null,"DvVersionMajor":null,"DvVersionMinor":null,"DvProfile":null,"DvLevel":null,"RpuPresentFlag":null,"ElPresentFlag":null,"BlPresentFlag":null,"DvBlSignalCompatibilityId":null,"Comment":null,"TimeBase":"1/1000","CodecTimeBase":null,"Title":null,"VideoRange":null,"VideoRangeType":null,"VideoDoViTitle":null,"LocalizedUndefined":null,"LocalizedDefault":null,"LocalizedForced":null,"LocalizedExternal":null,"DisplayTitle":"English - Dolby Digital - Stereo","NalLengthSize":null,"IsInterlaced":false,"IsAVC":null,"ChannelLayout":"stereo","BitRate":448000,"BitDepth":null,"RefFrames":null,"PacketLength":null,"Channels":2,"SampleRate":48000,"IsDefault":false,"IsForced":false,"Height":null,"Width":null,"AverageFrameRate":null,"RealFrameRate":null,"Profile":null,"Type":0,"AspectRatio":null,"Index":1,"Score":null,"IsExternal":false,"DeliveryMethod":null,"DeliveryUrl":null,"IsExternalUrl":null,"IsTextSubtitleStream":false,"SupportsExternalStream":false,"Path":null,"PixelFormat":null,"Level":0,"IsAnamorphic":null}],"MediaAttachments":[],"Formats":[],"Bitrate":4374121,"Timestamp":null,"RequiredHttpHeaders":{},"TranscodingUrl":null,"TranscodingSubProtocol":null,"TranscodingContainer":null,"AnalyzeDurationMs":null,"DefaultAudioStreamIndex":null,"DefaultSubtitleStreamIndex":null}

/usr/lib/jellyfin-ffmpeg/ffmpeg -analyzeduration 200M -ss 00:00:06.000 -f matroska,webm -autorotate 0 -i file:"/data/tvshows/Come Fly With Me/Season 1/Come Fly With Me - S01E03 - Episode 3 Bluray-1080p.mkv" -map_metadata -1 -map_chapters -1 -threads 0 -map 0:0 -map 0:1 -map -0:s -codec:v:0 libx264 -preset veryfast -crf 23 -maxrate 3926121 -bufsize 7852242 -x264opts:0 subme=0:me_range=4:rc_lookahead=10:me=dia:no_chroma_me:8x8dct=0:partitions=none -force_key_frames:0 "expr:gte(t,6+n_forced*3)" -sc_threshold:v:0 0 -vf "setparams=color_primaries=bt709:color_trc=bt709:colorspace=bt709,scale=trunc(min(max(iw\,ih*a)\,min(1920\,1080*a))/2)*2:trunc(min(max(iw/a\,ih)\,min(1920/a\,1080))/2)*2,format=yuv420p" -codec:a:0 libfdk_aac -ac 2 -ab 256000 -copyts -avoid_negative_ts disabled -max_muxing_queue_size 2048 -f hls -max_delay 5000000 -hls_time 3 -hls_segment_type mpegts -start_number 2 -hls_segment_filename "/config/data/transcodes/37aa0be24a3348b8c6cd2f5aa00cb6cf%d.ts" -hls_playlist_type vod -hls_list_size 0 -y "/config/data/transcodes/37aa0be24a3348b8c6cd2f5aa00cb6cf.m3u8"


ffmpeg version 5.1.3-Jellyfin Copyright (c) 2000-2022 the FFmpeg developers
  built with gcc 11 (Ubuntu 11.3.0-1ubuntu1~22.04.1)
  configuration: --prefix=/usr/lib/jellyfin-ffmpeg --target-os=linux --extra-libs=-lfftw3f --extra-version=Jellyfin --disable-doc --disable-ffplay --disable-ptx-compression --disable-static --disable-libxcb --disable-sdl2 --disable-xlib --enable-lto --enable-gpl --enable-version3 --enable-shared --enable-gmp --enable-gnutls --enable-chromaprint --enable-libdrm --enable-libass --enable-libfreetype --enable-libfribidi --enable-libfontconfig --enable-libbluray --enable-libmp3lame --enable-libopus --enable-libtheora --enable-libvorbis --enable-libopenmpt --enable-libdav1d --enable-libwebp --enable-libvpx --enable-libx264 --enable-libx265 --enable-libzvbi --enable-libzimg --enable-libfdk-aac --arch=amd64 --enable-libsvtav1 --enable-libshaderc --enable-libplacebo --enable-vulkan --enable-opencl --enable-vaapi --enable-amf --enable-libmfx --enable-ffnvcodec --enable-cuda --enable-cuda-llvm --enable-cuvid --enable-nvdec --enable-nvenc
  libavutil      57. 28.100 / 57. 28.100
  libavcodec     59. 37.100 / 59. 37.100
  libavformat    59. 27.100 / 59. 27.100
  libavdevice    59.  7.100 / 59.  7.100
  libavfilter     8. 44.100 /  8. 44.100
  libswscale      6.  7.100 /  6.  7.100
  libswresample   4.  7.100 /  4.  7.100
  libpostproc    56.  6.100 / 56.  6.100
Input #0, matroska,webm, from 'file:/data/tvshows/Come Fly With Me/Season 1/Come Fly With Me - S01E03 - Episode 3 Bluray-1080p.mkv':
  Metadata:
    title           : Come Fly With Me Disc 1
    ENCODER         : Lavf60.3.100
  Duration: 00:28:03.01, start: 0.000000, bitrate: 3926 kb/s
  Chapters:
    Chapter #0:0: start 0.000000, end 437.840000
      Metadata:
        title           : Chapter 01
    Chapter #0:1: start 437.840000, end 889.000000
      Metadata:
        title           : Chapter 02
    Chapter #0:2: start 889.000000, end 1303.320000
      Metadata:
        title           : Chapter 03
    Chapter #0:3: start 1303.320000, end 1683.008000
      Metadata:
        title           : Chapter 04
  Stream #0:0: Video: hevc (Main 10), yuv420p10le(tv), 1920x1080, SAR 1:1 DAR 16:9, 25 fps, 25 tbr, 1k tbn (default)
    Metadata:
      BPS             : 3474824
      BPS-eng         : 3474824
      DURATION-eng    : 00:28:03.000000000
      NUMBER_OF_FRAMES: 42075
      NUMBER_OF_FRAMES-eng: 42075
      NUMBER_OF_BYTES : 731016210
      NUMBER_OF_BYTES-eng: 731016210
      _STATISTICS_WRITING_APP: mkvmerge v20.0.0 ('I Am The Sun') 64-bit
      _STATISTICS_WRITING_APP-eng: mkvmerge v20.0.0 ('I Am The Sun') 64-bit
      _STATISTICS_WRITING_DATE_UTC: 2020-09-25 17:35:11
      _STATISTICS_WRITING_DATE_UTC-eng: 2020-09-25 17:35:11
      _STATISTICS_TAGS: BPS DURATION NUMBER_OF_FRAMES NUMBER_OF_BYTES
      _STATISTICS_TAGS-eng: BPS DURATION NUMBER_OF_FRAMES NUMBER_OF_BYTES
      DURATION        : 00:28:03.000000000
  Stream #0:1(eng): Audio: ac3, 48000 Hz, stereo, fltp, 448 kb/s
    Metadata:
      BPS             : 448000
      BPS-eng         : 448000
      DURATION-eng    : 00:28:03.008000000
      NUMBER_OF_FRAMES: 52594
      NUMBER_OF_FRAMES-eng: 52594
      NUMBER_OF_BYTES : 94248448
      NUMBER_OF_BYTES-eng: 94248448
      _STATISTICS_WRITING_APP: mkvmerge v20.0.0 ('I Am The Sun') 64-bit
      _STATISTICS_WRITING_APP-eng: mkvmerge v20.0.0 ('I Am The Sun') 64-bit
      _STATISTICS_WRITING_DATE_UTC: 2020-09-25 17:35:11
      _STATISTICS_WRITING_DATE_UTC-eng: 2020-09-25 17:35:11
      _STATISTICS_TAGS: BPS DURATION NUMBER_OF_FRAMES NUMBER_OF_BYTES
      _STATISTICS_TAGS-eng: BPS DURATION NUMBER_OF_FRAMES NUMBER_OF_BYTES
      DURATION        : 00:28:03.008000000
Stream mapping:
  Stream #0:0 -> #0:0 (hevc (native) -> h264 (libx264))
  Stream #0:1 -> #0:1 (ac3 (native) -> aac (libfdk_aac))
Press [q] to stop, [?] for help
[libx264 @ 0x55ecd7f57640] using SAR=1/1
[libx264 @ 0x55ecd7f57640] using cpu capabilities: MMX2 SSE2Fast SSSE3 SSE4.2 AVX FMA3 BMI2 AVX2
[libx264 @ 0x55ecd7f57640] profile Main, level 4.0, 4:2:0, 8-bit
[libx264 @ 0x55ecd7f57640] 264 - core 163 r3060 5db6aa6 - H.264/MPEG-4 AVC codec - Copyleft 2003-2021 - http://www.videolan.org/x264.html - options: cabac=1 ref=1 deblock=1:0:0 analyse=0x1:0 me=dia subme=0 psy=1 psy_rd=1.00:0.00 mixed_ref=0 me_range=4 chroma_me=0 trellis=0 8x8dct=0 cqm=0 deadzone=21,11 fast_pskip=1 chroma_qp_offset=0 threads=6 lookahead_threads=1 sliced_threads=0 nr=0 decimate=1 interlaced=0 bluray_compat=0 constrained_intra=0 bframes=3 b_pyramid=2 b_adapt=1 b_bias=0 direct=1 weightb=1 open_gop=0 weightp=1 keyint=250 keyint_min=25 scenecut=0 intra_refresh=0 rc_lookahead=10 rc=crf mbtree=1 crf=23.0 qcomp=0.60 qpmin=0 qpmax=69 qpstep=4 vbv_maxrate=3926 vbv_bufsize=7852 crf_max=0.0 nal_hrd=none filler=0 ip_ratio=1.40 aq=1:1.00
Output #0, hls, to '/config/data/transcodes/37aa0be24a3348b8c6cd2f5aa00cb6cf.m3u8':
  Metadata:
    encoder         : Lavf59.27.100
  Stream #0:0: Video: h264, yuv420p(tv, bt709, progressive), 1920x1080 [SAR 1:1 DAR 16:9], q=2-31, 25 fps, 90k tbn (default)
    Metadata:
      encoder         : Lavc59.37.100 libx264
    Side data:
      cpb: bitrate max/min/avg: 3926000/0/0 buffer size: 7852000 vbv_delay: N/A
  Stream #0:1: Audio: aac, 48000 Hz, stereo, s16, 256 kb/s
    Metadata:
      encoder         : Lavc59.37.100 libfdk_aac
frame=    1 fps=0.0 q=0.0 size=N/A time=00:00:00.00 bitrate=N/A speed=   0x    
frame=   17 fps=0.0 q=0.0 size=N/A time=00:00:00.68 bitrate=N/A speed=0.685x    
frame=   26 fps= 16 q=28.0 size=N/A time=00:00:01.02 bitrate=N/A speed=0.633x    
frame=   37 fps= 17 q=28.0 size=N/A time=00:00:01.47 bitrate=N/A speed=0.693x    
frame=   46 fps= 18 q=28.0 size=N/A time=00:00:01.83 bitrate=N/A speed=0.698x    
frame=   56 fps= 18 q=30.0 size=N/A time=00:00:02.24 bitrate=N/A speed=0.716x    
frame=   62 fps= 17 q=31.0 size=N/A time=00:00:02.47 bitrate=N/A speed=0.681x    
frame=   75 fps= 18 q=30.0 size=N/A time=00:00:02.98 bitrate=N/A speed=0.71x    
frame=   84 fps= 18 q=28.0 size=N/A time=00:00:03.37 bitrate=N/A speed=0.716x    
frame=   93 fps= 17 q=29.0 size=N/A time=00:00:03.71 bitrate=N/A speed=0.697x    
frame=  102 fps= 17 q=30.0 size=N/A time=00:00:04.07 bitrate=N/A speed=0.699x    
frame=  115 fps= 18 q=31.0 size=N/A time=00:00:04.58 bitrate=N/A speed=0.723x    
frame=  127 fps= 18 q=31.0 size=N/A time=00:00:05.05 bitrate=N/A speed=0.73x    
frame=  133 fps= 17 q=30.0 size=N/A time=00:00:05.31 bitrate=N/A speed=0.697x    
frame=  143 fps= 18 q=31.0 size=N/A time=00:00:05.69 bitrate=N/A speed=0.701x    
frame=  154 fps= 18 q=30.0 size=N/A time=00:00:06.14 bitrate=N/A speed=0.712x    
frame=  165 fps= 18 q=32.0 size=N/A time=00:00:06.59 bitrate=N/A speed=0.713x    
[hls @ 0x55ecd7f4c240] Opening '/config/data/transcodes/37aa0be24a3348b8c6cd2f5aa00cb6cf2.ts' for writing
frame=  173 fps= 18 q=32.0 size=N/A time=00:00:06.91 bitrate=N/A speed=0.703x    
frame=  182 fps= 18 q=32.0 size=N/A time=00:00:07.27 bitrate=N/A speed=0.703x    
frame=  192 fps= 18 q=32.0 size=N/A time=00:00:07.65 bitrate=N/A speed=0.706x    
frame=  200 fps= 18 q=32.0 size=N/A time=00:00:08.00 bitrate=N/A speed=0.705x    
frame=  210 fps= 18 q=28.0 size=N/A time=00:00:08.38 bitrate=N/A speed=0.702x    
frame=  220 fps= 18 q=29.0 size=N/A time=00:00:08.81 bitrate=N/A speed=0.707x    
frame=  235 fps= 18 q=28.0 size=N/A time=00:00:09.38 bitrate=N/A speed=0.724x    
[hls @ 0x55ecd7f4c240] Opening '/config/data/transcodes/37aa0be24a3348b8c6cd2f5aa00cb6cf3.ts' for writing
frame=  250 fps= 18 q=28.0 size=N/A time=00:00:09.98 bitrate=N/A speed=0.737x    
frame=  261 fps= 19 q=28.0 size=N/A time=00:00:10.43 bitrate=N/A speed=0.742x    
frame=  271 fps= 19 q=28.0 size=N/A time=00:00:10.81 bitrate=N/A speed=0.743x    
frame=  287 fps= 19 q=28.0 size=N/A time=00:00:11.45 bitrate=N/A speed=0.76x    
frame=  305 fps= 20 q=28.0 size=N/A time=00:00:12.20 bitrate=N/A speed=0.783x    
frame=  320 fps= 20 q=28.0 size=N/A time=00:00:12.80 bitrate=N/A speed=0.792x    
[hls @ 0x55ecd7f4c240] Opening '/config/data/transcodes/37aa0be24a3348b8c6cd2f5aa00cb6cf4.ts' for writing
frame=  331 fps= 20 q=28.0 size=N/A time=00:00:13.22 bitrate=N/A speed=0.794x    
frame=  343 fps= 20 q=28.0 size=N/A time=00:00:13.69 bitrate=N/A speed=0.798x    
frame=  358 fps= 20 q=28.0 size=N/A time=00:00:14.31 bitrate=N/A speed=0.811x    
frame=  369 fps= 20 q=28.0 size=N/A time=00:00:14.76 bitrate=N/A speed=0.813x    
frame=  381 fps= 20 q=28.0 size=N/A time=00:00:15.23 bitrate=N/A speed=0.815x    
frame=  393 fps= 20 q=28.0 size=N/A time=00:00:15.72 bitrate=N/A speed=0.815x    
[hls @ 0x55ecd7f4c240] Opening '/config/data/transcodes/37aa0be24a3348b8c6cd2f5aa00cb6cf5.ts' for writing
frame=  401 fps= 20 q=28.0 size=N/A time=00:00:16.04 bitrate=N/A speed=0.811x    
frame=  410 fps= 20 q=28.0 size=N/A time=00:00:16.38 bitrate=N/A speed=0.804x    
frame=  423 fps= 20 q=28.0 size=N/A time=00:00:16.89 bitrate=N/A speed=0.81x    
frame=  437 fps= 20 q=28.0 size=N/A time=00:00:17.47 bitrate=N/A speed=0.818x    
frame=  450 fps= 21 q=28.0 size=N/A time=00:00:17.98 bitrate=N/A speed=0.822x    
frame=  463 fps= 21 q=28.0 size=N/A time=00:00:18.49 bitrate=N/A speed=0.826x    
[hls @ 0x55ecd7f4c240] Opening '/config/data/transcodes/37aa0be24a3348b8c6cd2f5aa00cb6cf6.ts' for writing
frame=  471 fps= 21 q=28.0 size=N/A time=00:00:18.81 bitrate=N/A speed=0.822x    
frame=  485 fps= 21 q=28.0 size=N/A time=00:00:19.39 bitrate=N/A speed=0.826x    
frame=  495 fps= 21 q=28.0 size=N/A time=00:00:19.77 bitrate=N/A speed=0.824x    
frame=  505 fps= 21 q=28.0 size=N/A time=00:00:20.20 bitrate=N/A speed=0.825x    
frame=  513 fps= 21 q=28.0 size=N/A time=00:00:20.52 bitrate=N/A speed=0.821x    
frame=  523 fps= 20 q=28.0 size=N/A time=00:00:20.90 bitrate=N/A speed=0.817x    
frame=  534 fps= 20 q=28.0 size=N/A time=00:00:21.35 bitrate=N/A speed=0.818x    
frame=  542 fps= 20 q=28.0 size=N/A time=00:00:21.67 bitrate=N/A speed=0.815x    
[hls @ 0x55ecd7f4c240] Opening '/config/data/transcodes/37aa0be24a3348b8c6cd2f5aa00cb6cf7.ts' for writing
frame=  552 fps= 20 q=28.0 size=N/A time=00:00:22.08 bitrate=N/A speed=0.815x    
frame=  563 fps= 20 q=28.0 size=N/A time=00:00:22.50 bitrate=N/A speed=0.813x    
frame=  573 fps= 20 q=28.0 size=N/A time=00:00:22.91 bitrate=N/A speed=0.813x    
frame=  583 fps= 20 q=28.0 size=N/A time=00:00:23.29 bitrate=N/A speed=0.811x    
frame=  593 fps= 20 q=28.0 size=N/A time=00:00:23.72 bitrate=N/A speed=0.81x    
frame=  600 fps= 20 q=28.0 size=N/A time=00:00:24.00 bitrate=N/A speed=0.805x    
frame=  606 fps= 20 q=28.0 size=N/A time=00:00:24.23 bitrate=N/A speed=0.799x    
frame=  614 fps= 20 q=28.0 size=N/A time=00:00:24.55 bitrate=N/A speed=0.796x    
[hls @ 0x55ecd7f4c240] Opening '/config/data/transcodes/37aa0be24a3348b8c6cd2f5aa00cb6cf8.ts' for writing
frame=  625 fps= 20 q=30.0 size=N/A time=00:00:25.00 bitrate=N/A speed=0.796x    
frame=  633 fps= 20 q=30.0 size=N/A time=00:00:25.32 bitrate=N/A speed=0.793x    
frame=  642 fps= 20 q=29.0 size=N/A time=00:00:25.66 bitrate=N/A speed=0.791x    
frame=  654 fps= 20 q=30.0 size=N/A time=00:00:26.15 bitrate=N/A speed=0.794x    
frame=  664 fps= 20 q=29.0 size=N/A time=00:00:26.56 bitrate=N/A speed=0.792x    
frame=  672 fps= 20 q=31.0 size=N/A time=00:00:26.88 bitrate=N/A speed=0.787x    
frame=  680 fps= 20 q=35.0 size=N/A time=00:00:27.20 bitrate=N/A speed=0.783x    
frame=  691 fps= 20 q=34.0 size=N/A time=00:00:27.64 bitrate=N/A speed=0.785x    
[hls @ 0x55ecd7f4c240] Opening '/config/data/transcodes/37aa0be24a3348b8c6cd2f5aa00cb6cf9.ts' for writing
frame=  699 fps= 20 q=38.0 size=N/A time=00:00:27.94 bitrate=N/A speed=0.782x    
frame=  707 fps= 20 q=37.0 size=N/A time=00:00:28.26 bitrate=N/A speed=0.78x    
frame=  716 fps= 19 q=34.0 size=N/A time=00:00:28.65 bitrate=N/A speed=0.779x    

[q] command received. Exiting.

[hls @ 0x55ecd7f4c240] Opening '/config/data/transcodes/37aa0be24a3348b8c6cd2f5aa00cb6cf10.ts' for writing
frame=  726 fps= 19 q=-1.0 Lsize=N/A time=00:00:29.03 bitrate=N/A speed=0.765x    
video:11899kB audio:911kB subtitle:0kB other streams:0kB global headers:0kB muxing overhead: unknown
[libx264 @ 0x55ecd7f57640] frame I:9     Avg QP:21.40  size:105364
[libx264 @ 0x55ecd7f57640] frame P:223   Avg QP:24.93  size: 33493
[libx264 @ 0x55ecd7f57640] frame B:494   Avg QP:26.59  size:  7625
[libx264 @ 0x55ecd7f57640] consecutive B-frames:  6.9%  5.2%  5.8% 82.1%
[libx264 @ 0x55ecd7f57640] mb I  I16..4: 51.5%  0.0% 48.5%
[libx264 @ 0x55ecd7f57640] mb P  I16..4: 34.4%  0.0%  0.0%  P16..4: 34.7%  0.0%  0.0%  0.0%  0.0%    skip:30.9%
[libx264 @ 0x55ecd7f57640] mb B  I16..4:  4.6%  0.0%  0.0%  B16..8: 18.5%  0.0%  0.0%  direct: 5.2%  skip:71.7%  L0:40.4% L1:48.4% BI:11.2%
[libx264 @ 0x55ecd7f57640] coded y,uvDC,uvAC intra: 28.7% 28.9% 6.4% inter: 7.8% 7.2% 0.1%
[libx264 @ 0x55ecd7f57640] i16 v,h,dc,p: 28% 31% 17% 24%
[libx264 @ 0x55ecd7f57640] i4 v,h,dc,ddl,ddr,vr,hd,vl,hu: 21% 26% 15%  8%  6%  5%  8%  4%  7%
[libx264 @ 0x55ecd7f57640] i8c dc,h,v,p: 48% 27% 19%  7%
[libx264 @ 0x55ecd7f57640] Weighted P-Frames: Y:13.9% UV:8.5%
[libx264 @ 0x55ecd7f57640] kb/s:3356.47